<?xml version="1.0" encoding="utf-8"?>
<!-- Generator: Adobe Illustrator 23.0.3, SVG Export Plug-In . SVG Version: 6.00 Build 0)  -->
<svg version="1.1" id="レイヤー_1" xmlns="http://www.w3.org/2000/svg" xmlns:xlink="http://www.w3.org/1999/xlink" x="0px"
	 y="0px" viewBox="0 0 240 45" style="enable-background:new 0 0 240 45;" xml:space="preserve">
<style type="text/css">
	.st0{fill:#00A5DE;}
	.st1{fill:#333333;}
	.st2{fill:#F2498E;}
	.st3{fill:#FFFFFF;}
</style>
<title>アートボード 1</title>
<g>
	<path class="st0" d="M13.8,10.4c-1,1.8-2.4,3.4-4.1,4.6l-1-1.6c1.5-0.8,2.8-2.1,3.6-3.6L13.8,10.4z M14.3,13.8
		c-0.5,1-1,1.9-1.7,2.8V25h-1.8v-6.3c-0.4,0.5-0.9,0.9-1.4,1.3l-0.7-1.9c1.7-1.4,3.1-3.1,4.1-5.1L14.3,13.8z M24.1,15.1v1.6h-2.5
		v6.9c0,1.3-0.6,1.4-1.7,1.4H17l-0.3-1.7h2.7c0.4,0,0.5,0,0.5-0.4v-6.1h-5.6v-1.6h9.8V15.1z M23.5,10.7v1.6H15v-1.6L23.5,10.7z
		 M24.9,17.8c1.5-1.5,2.3-3.5,2.5-5.6h-2.3v-1.6h8.2v1.6h-4.2l-0.4,1.7h3.8c-0.3,6.3-2.8,9.2-6,11.1l-1.1-1.4c1.6-0.8,2.9-2,3.8-3.5
		l-2.5-2c-0.3,0.4-0.6,0.8-1,1.2L24.9,17.8z M28.3,15.5l-0.6,1.4c0.9,0.5,1.7,1.1,2.4,1.8c0.3-1,0.6-2.1,0.7-3.2H28.3z M35.8,11
		v10.8h-1.6V11H35.8z M39.6,10v13.3c0,1.3-0.5,1.7-1.6,1.7h-2.8l-0.3-1.6h2.5c0.5,0,0.6-0.1,0.6-0.5V10H39.6z M54.3,12.6H56v1.6
		h-4.8c0.1,2.3,0.5,4.7,1.2,6.9c0.1,0.2,0.8,2,1.5,2c0.5,0,0.8-1.7,0.9-2.4l1.5,0.8c-0.2,1.2-0.7,3.6-2.1,3.6c-1,0-4.3-1.1-4.6-10.9
		h-8.5v-1.6h8.4l-0.1-2.5h1.7v2.5H54c-0.7-0.6-1.5-1.1-2.4-1.4l1-1.2l2.6,1.5L54.3,12.6z M41.1,22.8l3.4-0.4v-4.6h-3.1v-1.6h7.7v1.6
		h-2.9v4.4l3.4-0.6v1.5c-2.6,0.6-6.3,1.1-8.2,1.4L41.1,22.8z M70.5,14.8c0-1.2,0-2.2-2.4-2.2c-1.7,0-2.4,0.4-2.4,1.4
		c0.1,0.6,0.4,1.1,0.8,1.4l5,4.9c0.2-0.5,0.3-1.1,0.2-1.6v-1h1.8V19c0,0.9-0.2,1.9-0.6,2.7l2,2h-2.5l-0.8-0.8
		c-0.4,0.3-1.1,0.9-3.9,0.9s-5-0.7-5-3.7c0-1.7,0.5-3,2.4-3.6c-0.8-0.5-1.3-1.4-1.2-2.4c0-2.4,1.5-3.1,4.2-3.1
		c3.8,0,4.2,1.8,4.2,3.9h-1.8V14.8z M66.3,17.6c-0.4,0-1.8,0.3-1.8,2.3c0,1.2,0.4,2.1,3.4,2.1c0.8,0,1.7-0.1,2.4-0.5L66.3,17.6z
		 M80.8,16.2h3.3V21c0.3,2,2.9,2,3.8,2H96l-0.3,1.6h-7.9c-0.8,0-1.5-0.1-2.3-0.3c-0.7-0.3-1.4-0.8-1.8-1.4l-2.2,2.2l-0.8-1.7
		c0.7-0.4,1.3-0.9,1.8-1.5v-4.1h-1.7V16.2z M82.1,10.2C83,11,83.8,12,84.5,13l-1.4,1c-0.7-1-1.5-2-2.4-2.8L82.1,10.2z M89.5,17.7
		v-3.9H85v-1.5h2.6c-0.3-0.6-0.6-1.2-1-1.8l1.5-0.4c0.4,0.7,0.8,1.5,1.1,2.3h2.2l1.1-2.3l1.6,0.4c-0.3,0.7-0.6,1.3-1,1.9h2.6v1.5
		h-4.6v3.9h2.4v-3.1h1.6v4.6h-4.3c-0.5,1.6-1.7,2.9-3.2,3.6l-1.1-1.5c1.2-0.1,2.2-1,2.6-2.1h-3.5v-4.6h1.6v3.1h2.3L89.5,17.7z
		 M101.5,10.4c-1,1.8-2.4,3.4-4.1,4.6l-1-1.6c1.5-0.8,2.8-2.1,3.6-3.6L101.5,10.4z M102,13.8c-0.5,1-1,1.9-1.7,2.8V25h-1.8v-6.3
		c-0.4,0.5-0.9,0.9-1.4,1.3l-0.7-1.9c1.7-1.4,3.1-3.1,4.1-5.1L102,13.8z M111.8,15.1v1.6h-2.5v6.9c0,1.3-0.6,1.4-1.7,1.4h-2.9
		l-0.3-1.7h2.7c0.4,0,0.5,0,0.5-0.4v-6.1H102v-1.6h9.8L111.8,15.1z M111.2,10.7v1.6h-8.5v-1.6L111.2,10.7z M112.6,17.8
		c1.5-1.5,2.3-3.5,2.5-5.6h-2.3v-1.6h8.2v1.6h-4.2l-0.4,1.7h3.8c-0.3,6.3-2.8,9.2-6,11.1l-1.1-1.4c1.6-0.8,2.9-2,3.8-3.5l-2.5-2
		c-0.3,0.4-0.6,0.8-1,1.2L112.6,17.8z M116,15.5l-0.6,1.4c0.9,0.5,1.7,1.1,2.4,1.8c0.3-1,0.6-2.1,0.7-3.2H116z M123.5,11v10.8h-1.6
		V11L123.5,11z M127.3,10v13.3c0,1.3-0.5,1.7-1.6,1.7h-2.8l-0.3-1.6h2.5c0.5,0,0.6-0.1,0.6-0.5V10L127.3,10z M134.1,12.7h7v1.5h-7
		V12.7z M134.6,10.4h6v1.4h-6V10.4z M134.6,15h6v1.4h-6V15z M134.6,17.4h6v1.4h-6V17.4z M134.6,19.8h6v4.6H136v0.7h-1.5v-5.3
		L134.6,19.8z M136.1,21.2v1.7h3.1v-1.7L136.1,21.2z M145.9,14.5h3.2v1.7h-3.2v8.9h-1.7v-8.9h-3.1v-1.7h3.1v-4.4h1.7V14.5z
		 M161.1,22.6v2.5h-1.6v-2.5h-4c-0.8,1.7-3.2,2.3-4.1,2.5l-0.8-1.5c1-0.1,2-0.4,2.9-1H150v-1.4h4.3l0.2-0.8h-2.7v-6.6l-0.6,0.5
		l-1.2-1.2c1.1-0.8,2-1.9,2.5-3.2l1.6,0.3l-0.3,0.7h3.6v1.4h-2.3l0.4,0.8l-1.5,0.5h4.3l-1.2-0.8c0.9-0.8,1.6-1.8,1.9-3l1.6,0.3
		l-0.2,0.7h4.8v1.4H162l0.4,0.8l-1.5,0.5l-0.7-1.3h-0.7l-1,1.3h4.9v6.7H161V21h4.1v1.4h-4L161.1,22.6z M153.4,12.3H153
		c-0.3,0.5-0.7,0.9-1.1,1.3h2L153.4,12.3z M161.9,14.8h-8.5v0.8h8.5V14.8z M161.9,16.6h-8.5v0.8h8.5V16.6z M161.9,18.4h-8.5v0.8h8.5
		V18.4z M159.4,20.4H156l-0.1,0.8h3.5L159.4,20.4L159.4,20.4z M174.2,22.8c-0.5-0.6-1.1-1-1.8-1.3c-0.1,1.3-0.6,2.5-1.4,3.5
		l-1.2-1.2c1-1.3,1.1-2.2,1.2-4.6h-0.5v-1.1l-0.6,1c-0.3-0.5-0.5-1-0.7-1.6V25h-1.5v-6.3c-0.2,1-0.5,1.9-1,2.8l-0.8-2.1
		c0.9-1.5,1.4-3.2,1.7-4.9h-1.5V13h1.6v-2.9h1.5V13h1v1.6h-1v0.6c0.4,1,0.9,1.9,1.5,2.7h4.3c-0.4-2.6-0.5-5.1-0.5-7.7h1.6v2.1
		l0.8-0.9l0.3,0.2l0.9-1.5l1.2,0.4l-1.3,1.9l0.5,0.6l1.1-1.5l1.1,0.5c-0.8,1.2-1.6,2.3-2.6,3.3l1.6-0.1l-0.3-0.8l1.1-0.4
		c0.4,0.8,0.7,1.6,0.9,2.5l-1.2,0.5l-0.2-0.7l-1.3,0.1l1.2,0.8l-0.6,0.7h1.9v1.4H177l0.5,2c0.5-0.5,1-1.1,1.4-1.7l1.4,0.6
		c-0.6,1-1.3,1.8-2.1,2.6c0.2,0.3,0.5,0.8,0.9,0.8s0.8-1.2,1-1.8l1.2,1.1c-0.6,1.9-1.2,2.3-2.1,2.3c-1,0-1.9-0.5-2.3-1.4
		c-1,0.6-2,1.1-3.1,1.4l-0.6-1.4c1.1-0.3,2.2-0.7,3.1-1.4l-0.9-3h-2.7v0.9c0.9,0.3,1.8,0.8,2.5,1.4L174.2,22.8L174.2,22.8z
		 M170.2,15.5l1.3-1.5l-1.7-1.8l0.9-1l0.3,0.3l1-1.5l1.2,0.4c-0.3,0.7-0.8,1.3-1.3,1.8l0.5,0.6l1.1-1.5l1,0.6
		c-0.8,1.2-1.8,2.3-2.8,3.4l1.4-0.1l-0.3-0.7l1.1-0.4c0.4,0.8,0.6,1.6,0.8,2.4l-1.2,0.4l-0.1-0.7l-3.3,0.3l-0.2-1.3h0.3V15.5z
		 M177.7,13.9c-0.4-0.6-1-1.2-1.6-1.6l0.2,3h0.2C177,14.9,177.4,14.4,177.7,13.9L177.7,13.9z M178,16.3l-1.5,0.1l0.2,1.4h2.1
		l-1.3-0.8L178,16.3z"/>
</g>
<g>
	<path class="st1" d="M9.1,30.2h3.1v3H9.9v4.1H9.1V30.2z M9.9,30.8v0.6h1.5v-0.6H9.9z M9.9,31.9v0.6h1.5v-0.6L9.9,31.9z M14.3,33.8
		v2.7h-3.5v-2.7L14.3,33.8z M11.6,34.5v1.3h2v-1.3L11.6,34.5z M15.3,33.2H13v-3h3.1v6.5c0,0.7-0.3,0.7-0.6,0.7h-1.3l-0.1-0.8h1
		c0.2,0,0.2-0.1,0.2-0.2L15.3,33.2z M13.7,30.8v0.6h1.5v-0.6H13.7z M13.7,31.9v0.6h1.5v-0.6L13.7,31.9z M18,34.2l-0.1,0.9l0.5,0.8
		v-2h-1.6v-0.7h3.8v0.7h-1.5v0.7h1.3v0.7h-1.3v1l1,0.1h4.3l-0.1,0.8h-4.2c-0.9,0.1-1.8-0.3-2.4-1l-0.4,1.2l-0.7-0.5
		c0.4-0.8,0.6-1.8,0.6-2.7H18z M17.1,30.1h3.2v2.7h-3.2V30.1z M17.8,30.7v0.5h1.7v-0.5H17.8z M17.8,31.7v0.5h1.7v-0.5H17.8z
		 M20.3,35.7c0.4-0.1,0.9-0.3,1.2-0.6h-0.6v-3.9h1l0.1-0.5h-1.3V30h3.7v0.7h-1.7l-0.1,0.5h1.5v3.9h-0.7l1,0.6L24,36.3
		c-0.5-0.2-0.9-0.5-1.2-0.9l0.4-0.3h-1.4l0.4,0.3c-0.4,0.4-0.8,0.7-1.3,0.9L20.3,35.7z M21.6,31.9v0.5h1.7v-0.5H21.6z M21.6,33v0.5
		h1.7V33H21.6z M21.6,34v0.5h1.7V34H21.6z M28.2,36.1c1,0,2.9-0.1,2.9-2.6c0.1-1.1-0.7-2.1-1.8-2.2c-0.1,0-0.2,0-0.3,0
		c0,1.3-0.3,2.7-0.9,3.9c-0.3,0.6-0.8,1-1.5,1.1c-1,0-1.6-1.2-1.6-2.3c0-1.9,1.5-3.5,3.4-3.5c0.1,0,0.2,0,0.3,0
		c2.7,0,3.4,1.8,3.4,3.1c0,3.2-2.8,3.3-3.7,3.4L28.2,36.1z M25.9,34.1c0,0.9,0.3,1.3,0.7,1.3c1.1,0,1.4-3,1.5-4.1
		C26.8,31.6,25.9,32.8,25.9,34.1z M36.5,31.9l-0.4-0.3c0.6-0.5,1-1.1,1.2-1.8l0.8,0.2l-0.2,0.5h2.4v0.7h-1.5l0.4,0.8l-0.8,0.3
		l-0.5-1h-0.4L37,32c1,0.8,2.1,1.4,3.4,1.6L40,34.4l-1.5-0.6v0.5h-3.9v-0.4l-1.5,0.6l-0.4-0.8c1.3-0.2,2.5-0.8,3.4-1.7h0.4V31.9z
		 M34.2,31.2l-0.9,0.9l-0.5-0.6c0.6-0.4,1.1-1,1.4-1.7L35,30l-0.2,0.5h1.8v0.7h-1.3l0.3,0.7l-0.8,0.2l-0.4-0.9L34.2,31.2z
		 M39.5,34.7v2.7h-0.9V37h-4.1v0.3h-0.9v-2.7L39.5,34.7L39.5,34.7z M34.6,35.4v0.9h4.1v-0.9H34.6z M38.1,33.5
		c-0.6-0.3-1.1-0.7-1.5-1.1c-0.4,0.5-0.9,0.8-1.5,1.1H38.1z M46.3,31.9v0.7L44.6,34h0.3c0.6,0,0.8,0.5,0.8,1.1v0.3
		c0,0.5,0,0.7,0.7,0.7l1.4-0.1v1h-1.4c-1.3,0-1.6-0.5-1.6-1.4v-0.3c0-0.2,0-0.6-0.4-0.6c-0.3,0-0.7,0.1-0.9,0.4L41.6,37L41,36.3
		l1.5-1.4l2.4-2.2l-3.4,0.1V32L46.3,31.9z M46.3,31.4c-1.3-0.3-2.6-0.5-3.9-0.5l0.1-0.8c1.3,0,2.7,0.2,4,0.5L46.3,31.4z M50.1,32.2
		c-0.4,0.3-0.8,0.5-1.3,0.6L48.3,32c1.3-0.4,2.5-1.2,3.4-2.2h0.8c0.9,1,2.1,1.8,3.4,2.2l-0.5,0.8l-1.2-0.6v0.6H50L50.1,32.2
		L50.1,32.2z M49.2,33.6h6v3.7h-0.8V37H50v0.3h-0.8L49.2,33.6z M50,34.4v1.9h4.3v-1.9L50,34.4z M54,32c-0.7-0.4-1.3-0.9-1.8-1.5
		c-0.5,0.6-1.1,1.1-1.8,1.5H54z M59.6,36c0.8,0.1,1.6-0.2,2.3-0.6c0.5-0.4,0.7-1,0.7-1.6c0.1-0.8-0.5-1.5-1.3-1.6
		c-0.1,0-0.2,0-0.3,0c-0.9,0.1-1.7,0.4-2.3,1.1V37h-0.9v-2.5c-0.2,0.4-0.5,0.8-0.8,1.1l-0.5-0.8c0.5-0.5,1-1.1,1.4-1.8v-0.8h-1.2
		v-0.8h1.2v-1.2h0.9v1.2H59v0.4l-0.3,0.6v0.1c0.7-0.6,1.6-1,2.5-1c1.2,0,2.3,0.9,2.3,2.2c0,0.1,0,0.2,0,0.3c0,2.7-2.5,2.9-3.7,3
		L59.6,36z M70.1,30.1l0.1,1.6h1.3v0.8h-1.3c0,2.1-0.1,2.7-1.4,2.7l-0.9-0.1v-0.8l0.9,0.1c0.5,0,0.6-0.3,0.6-1.9l-2.8,0.1v2
		c0,1.4,0.1,1.5,2.2,1.5l2.1-0.1v0.9L68.8,37c-1.4,0-2.2-0.1-2.6-0.5c-0.4-0.5-0.6-1.2-0.5-1.8v-1.9h-1.2V32h1.2v-1.6h0.9V32
		l2.7-0.1l-0.1-1.6L70.1,30.1z M76.2,30.1l0.7,1.1h0.5c1.2,0,2,0.6,2,1.8c0,1.1-0.9,2-2,2c-0.1,0-0.1,0-0.2,0l-1.1-0.2l0.1-0.8
		l0.9,0.2c1.1,0,1.3-0.7,1.3-1.1s-0.1-1-1.2-1l0.2,0.6l-0.9,0.2l-0.2-0.6l-1.5,0.5l1,4.2l-1,0.1c-0.3-1.9-0.8-3.5-0.9-4.1l-1.3,0.5
		l-0.3-0.9l1.3-0.4l-0.5-1.6l0.9-0.2l0.5,1.6l1.4-0.5l-0.5-1L76.2,30.1z M79.9,31.2h2.8v0.7h-2.8L79.9,31.2z M80.2,30h2.4v0.7h-2.4
		V30z M80.2,32.3h2.4V33h-2.4V32.3z M80.2,33.5h2.4v0.7h-2.4V33.5z M80.2,34.7h2.4V37H81v0.3h-0.7v-2.6H80.2z M80.9,35.4v0.9h0.9
		v-0.9H80.9z M82.8,36l0.9-0.2v-2.4H83v-0.8h2.1v0.8h-0.6v2.2l0.9-0.2l0.1,0.8l-2.4,0.6L82.8,36z M85.2,31.2v-1.3H86v1.3h1.5V32H86
		c0.1,2.4,0.4,4.4,0.7,4.4l0.3-0.8l0.7,0.4c-0.2,0.8-0.4,1.5-0.9,1.5c-1.3,0-1.5-3.8-1.5-5.4H83v-0.8h2.2V31.2z M86.6,29.8l0.9,0.9
		l-0.6,0.5l-0.8-0.9L86.6,29.8z M88.4,34.9c0,0.7-0.1,1.4-0.3,2l-0.4-0.2c0.2-0.6,0.3-1.2,0.3-1.8H88.4z M92,31.9l-0.6,0.4L91,31.5
		v0.4h-0.7v0.6H91v0.6h-0.7v0.6h0.8c0,1,0,2-0.2,3c-0.2,0.6-0.5,0.6-0.9,0.6h-0.8l-0.1-0.7h0.7c0.2,0,0.4-0.1,0.5-0.3l0.2-1.9h-2.3
		v-4.3h3v0.6h-0.8v0.6h0.7v0.2c0.7-0.4,1.3-1,1.8-1.7h1c0.4,0.7,1.1,1.3,1.8,1.6l-0.4,0.7l-0.6-0.4v0.4h-1v0.5h1.6V35H94
		c0.4,0.6,1,1.1,1.7,1.4l-0.5,0.8c-0.8-0.4-1.4-1-1.8-1.8c-0.3,0.9-1,1.6-1.9,1.8l-0.4-0.7c0.7-0.1,1.4-0.7,1.6-1.4h-1.2v-2.4H93
		v-0.5h-1V31.9z M89,34.9v1.4l-0.5,0.1l0.1-1V35L89,34.9L89,34.9z M88.9,30.8v0.6h0.8v-0.6H88.9z M88.9,31.9v0.6h0.8v-0.6L88.9,31.9
		z M88.9,33.1v0.6h0.8v-0.6H88.9z M89.6,34.8l0.1,1.3l-0.4,0.1l-0.1-1.3L89.6,34.8z M90.1,34.8l0.1,1.1L89.9,36l-0.1-1.1L90.1,34.8z
		 M92.9,33.5h-0.8v1h0.7l0.1-0.7L92.9,33.5z M94.3,31.6l-1-1.1c-0.3,0.4-0.6,0.8-1,1.1H94.3z M93.7,33.8l-0.1,0.7h0.9v-1h-0.9
		L93.7,33.8L93.7,33.8z M96.7,32.5c0.5,0.4,0.9,0.8,1.3,1.2l0.4-1.8H96v-0.8h1.5v-1.2h0.8v1.2h1.4v0.8h-0.5
		c-0.1,0.8-0.4,1.6-0.7,2.4c0.4,0.5,0.8,1,1.2,1.6L99,36.4l-0.9-1.3c-0.5,0.8-1.1,1.5-1.8,2.1l-0.6-0.7c0.7-0.6,1.3-1.2,1.8-2
		c-0.4-0.5-0.9-1-1.5-1.4L96.7,32.5z M100.4,32.8c0.4,0.7,0.8,1.4,1.1,2.1l-0.8,0.4c-0.2-0.7-0.6-1.5-1-2.1L100.4,32.8z M102.8,29.8
		v1.5h0.7v0.9h-0.7v4.4c0,0.6-0.3,0.7-1,0.7h-1.2l-0.2-0.8h1.3c0.3,0,0.3,0,0.3-0.2v-4.1h-2v-0.9h1.9v-1.5L102.8,29.8z M107.7,31.7
		l-0.5-0.4c0.5-0.4,0.9-1,1.1-1.6l0.7,0.1l-0.1,0.4h2.5V31h-1.6l0.3,0.5l-0.7,0.3L109,31h-0.4l-0.6,0.7h0.1v0.4h3.4v0.7h-3.4v0.4
		h2.8v1.5c0,0.2,0,0.7-0.6,0.7h-0.5c0.6,0.3,1.2,0.6,1.8,0.8l-0.4,0.8c-1.2-0.4-2.3-1.1-3.1-2.1v2.4h-0.8V35c-0.8,1-1.9,1.7-3.1,2.1
		l-0.4-0.8c1.3-0.4,2.5-1.2,3.4-2.3h-2v1.4h-0.8v-2.1h2.8v-0.4h-3.3v-0.7h3.3v-0.4L107.7,31.7L107.7,31.7z M105.3,31
		c-0.3,0.4-0.6,0.7-0.9,1l-0.6-0.6c0.6-0.4,1-1,1.3-1.6l0.8,0.1l-0.1,0.4h1.8V31h-1.2l0.3,0.5l-0.8,0.3l-0.3-0.8L105.3,31z
		 M109.4,34.7h0.5c0.2,0,0.2-0.1,0.2-0.2V34h-2c0.4,0.5,0.9,1,1.5,1.4L109.4,34.7z M113.6,30.3c-0.2,1.2-0.3,2.5-0.3,3.7
		c0,1,0.1,1.9,0.3,2.9l-0.9,0.1c-0.2-1-0.3-2-0.3-3c0-1.3,0.1-2.5,0.3-3.8L113.6,30.3z M115.5,33.8c-0.2,0.3-0.4,0.6-0.4,1
		c0,0.9,0.9,0.9,1.9,0.9l1.6-0.1v0.9h-1.5c-1,0-2.8,0-2.8-1.7c0-0.5,0.2-1,0.5-1.4L115.5,33.8z M118.5,30.8v0.8h-4v-0.8H118.5z
		 M121.1,30.3l-0.1,4.5h-0.8l-0.1-4.5H121.1z M121.1,35.6v1h-1v-1H121.1z"/>
</g>
<path class="st2" d="M130.6,29.9v2.6c0.4-0.5,1-0.8,1.7-0.7c1.9,0,2.4,1,2.4,3c0,1.8-0.3,3.1-2.4,3.1c-1.1,0-1.5-0.3-1.8-0.7
	l-0.1,0.6h-1v-7.9H130.6z M130.6,34.9c0,1.6,0.4,2,1.6,2c1.4,0,1.5-0.7,1.5-2.2s-0.3-2-1.6-2S130.6,33.4,130.6,34.9z M136.7,31.8
	l1.8,4.2l1.6-4.2h1.2l-2.5,5.9c-0.5,1.1-0.8,1.3-2.1,1.3l-0.8-0.1v-1l0.9,0.1c0.7,0,0.8-0.2,1-0.7l0.1-0.2l-2.5-5.4h1.3V31.8z
	 M148.2,29.7h1.1v1.1h2.2v1h-2.2V33l1.6-0.2c1.9,0,3.1,0.9,3.1,2.7c0,2.2-2,2.7-4,2.7l-0.2-1c0.8,0.1,1.7,0,2.4-0.4
	c0.5-0.3,0.8-0.8,0.7-1.3c0-1.6-1.7-1.6-2.1-1.6c-0.5,0-1,0-1.5,0.2v2.8c0,0.3,0,1.2-1.4,1.2c-1.1,0.1-2.1-0.7-2.2-1.8
	c0,0,0-0.1,0-0.1c0.1-1.4,1.1-2.5,2.5-2.8v-1.5h-2.4v-1h2.4L148.2,29.7L148.2,29.7z M148.2,34.4c-1.1,0.5-1.5,1.2-1.5,1.8
	c0,0.8,0.8,0.8,1,0.8c0.5,0,0.5-0.2,0.5-0.3V34.4z M152.3,29.5c1,0.7,1.7,1.6,2.2,2.7l-1,0.6c-0.5-1-1.2-1.9-2.1-2.6L152.3,29.5
	L152.3,29.5z M161.6,38.4c-1.4-1.2-3-2.2-4.6-3.1c-0.5-0.3-1.2-0.7-1.2-1.4c0-0.5,0.4-0.9,1-1.4c1.2-0.9,2.4-1.9,3.5-3l1,0.8
	l-3.9,3.2c-0.2,0.1-0.3,0.3-0.3,0.5c0,0.3,0.2,0.4,0.8,0.7l3.7,2.2l0.9,0.7L161.6,38.4z M161.6,33.7l-0.9-1.5l0.8-0.4l0.9,1.4
	L161.6,33.7z M162.8,33.1l-0.9-1.4l0.8-0.4c0.4,0.4,0.7,0.9,0.9,1.4L162.8,33.1z M170.7,31.8v0.9l-2.1,1.8h0.3c0.8,0,1,0.7,1,1.4
	v0.4c0,0.6,0,0.9,0.9,0.9l1.8-0.1v1.1h-1.8c-1.6,0-2-0.6-2-1.7v-0.4c0-0.3,0-0.8-0.5-0.8c-0.4,0-0.8,0.2-1.1,0.4l-2.4,2.4l-0.8-0.8
	l1.9-1.8l3-2.8l-4.2,0.1v-1.1L170.7,31.8L170.7,31.8z M170.7,31.2c-1.6-0.5-3.2-0.7-4.9-0.7l0.2-1c1.7,0,3.4,0.2,5,0.6L170.7,31.2z
	 M175.5,29.7h1.2V31h3.3v1h-3.3v1.7h0.6c0.8,0,1.7-0.1,2.5-0.3l0.3,1c-1,0.2-2,0.3-3,0.3h-0.5c0,2,0.1,2.4,2,2.4
	c1.1,0,2.2-0.1,2.2-1.6c0-0.7-0.2-1.4-0.5-2.1l1-0.3c0.4,0.8,0.6,1.6,0.6,2.5c0,2.3-1.9,2.6-3.4,2.6c-2.8,0-3.1-1-3.1-3.4h-1.8v-1
	h1.8v-1.7h-1.6v-1h1.7L175.5,29.7z M187.1,29.8l-1.3,3.7c0.4-0.3,0.8-0.4,1.3-0.4c1.6,0,1.6,1.5,1.6,2.3v0.4c0,0.3,0,1.2,0.8,1.2
	s1.3-0.8,1.5-3l1,0.3c-0.3,2.4-0.9,3.8-2.7,3.8c-0.7,0-1.4-0.4-1.7-1.1l-0.2-1.2v-0.3c0-0.6,0-1.3-0.8-1.3c-1.1,0-1.7,1.2-1.9,1.8
	l-0.6,2.2l-1.1-0.3c0.9-2.8,1.8-5.5,2.6-8.3L187.1,29.8L187.1,29.8z M194.6,36.4v1.3h-1.3v-1.3H194.6z M201.1,35.5
	c0,1.8-0.9,2.3-2.6,2.3c-2.2,0-2.8-0.7-2.8-3s0.6-3,2.7-3c1,0,2.7,0,2.7,2.2H200c0-1.1-0.6-1.2-1.5-1.2c-1.4,0-1.7,0.2-1.7,2
	c0,1.4,0.1,2,1.6,2c1.2,0,1.6-0.2,1.6-1.3H201.1z M204.6,31.8c2,0,2.8,0.4,2.8,2.9c0,2.1-0.2,3.1-2.7,3.1c-2.2,0-2.8-0.5-2.8-3
	C202,32.7,202.3,31.8,204.6,31.8L204.6,31.8z M204.7,36.8c1.5,0,1.6-0.4,1.6-2.1s-0.3-1.9-1.6-1.9c-1.6,0-1.7,0.5-1.7,2
	S203.1,36.8,204.7,36.8L204.7,36.8z M209.5,31.8v0.6c0.4-0.5,1.1-0.8,1.7-0.7c0.7-0.1,1.3,0.2,1.7,0.8c0.4-0.6,1-0.9,1.7-0.8
	c1.9,0,2,1.1,2,1.8v4.2h-1.1v-3.9c0-0.4,0-1-1.1-1c-0.9,0-1.3,0.3-1.3,1.2v3.8H212V34c0-0.5,0-1.1-1.1-1.1c-1.4,0-1.4,0.7-1.4,1.2
	v3.8h-1.1V32h1.1L209.5,31.8z"/>
<rect x="187.9" y="11.7" class="st2" width="46.5" height="12.8"/>
<g>
	<path class="st3" d="M228.7,13.9l-0.2,5.9h-1l-0.2-5.9L228.7,13.9z M227.5,20.8h1.3v1.3h-1.3V20.8z"/>
	<path class="st3" d="M231.7,13.9l-0.2,5.9h-1l-0.2-5.9L231.7,13.9z M230.4,20.8h1.3v1.3h-1.3V20.8z"/>
	<g>
		<path class="st3" d="M192.2,17.1c-0.4,0.4-0.7,0.6-0.9,0.8l-0.6-0.8c1.1-0.6,2.3-2,2.7-3.3l0.9,0.2c-0.3,0.9-0.8,1.9-2,3h5.5
			c0,0.9,0,3.2-0.4,4.4c-0.2,0.8-0.8,0.8-1.2,0.8h-1.4l-0.2-0.9h1.4c0.5,0,0.6-0.4,0.7-0.8c0.1-0.4,0.2-1.2,0.2-2.6h-2.1
			c-0.2,2.4-1.5,3.6-3.3,4.3l-0.5-0.9c1.9-0.8,2.7-1.6,2.9-3.5h-1.6V17.1z M198.8,17.8c-0.7-0.5-2.3-2.1-2.9-3.7l0.9-0.3
			c0.5,1.1,1.4,2.5,2.6,3.2L198.8,17.8z"/>
		<path class="st3" d="M208.2,15.2v0.9h-0.4c0,0.5-0.1,2.5-0.9,3.9c0.6,0.8,1.2,1.2,1.5,1.4l-0.6,0.8c-0.4-0.3-1-0.7-1.5-1.4
			c-0.7,0.8-1.4,1.2-1.7,1.4l-0.7-0.8l-0.4,0.6c-0.2-0.1-0.5-0.3-1-0.5c-0.4,0.3-1.1,0.6-2.3,0.9l-0.4-0.8c0.7-0.1,1.2-0.2,1.8-0.5
			c-0.7-0.3-1.2-0.4-1.4-0.5c0.2-0.3,0.4-0.6,0.7-1.1h-1v-0.8h1.3c0.1-0.3,0.1-0.5,0.2-0.6l0.4,0.1v-1.4c-0.5,0.6-0.9,1-1.5,1.3
			l-0.6-0.7c0.7-0.4,1.4-1,1.6-1.2h-1.4v-0.7h0.7c-0.1-0.4-0.3-0.8-0.4-1.2l0.8-0.3c0.3,0.6,0.4,1,0.4,1.2l-0.6,0.2h1.1v-1.5h0.8
			v1.5h1.1l-0.8-0.2c0.3-0.5,0.3-0.6,0.5-1.3l0.8,0.2c-0.2,0.6-0.3,0.7-0.6,1.3h0.6v0.7h-1.3c0.5,0.4,0.6,0.5,1.1,0.8l-0.6,0.7
			c-0.4-0.3-0.6-0.4-0.9-0.8v1.4h-0.8l0.4,0.1c-0.1,0.2-0.1,0.3-0.1,0.5h2.3v0.8h-0.5c-0.1,0.4-0.3,0.9-0.7,1.4
			c0.3,0.1,0.7,0.3,0.9,0.4l-0.1,0.1c0.6-0.2,1.3-0.6,1.9-1.3c-0.5-1-0.7-2.2-0.8-2.7c-0.2,0.4-0.3,0.5-0.5,0.7l-0.7-0.7
			c0.8-1.2,1.2-2.4,1.3-3.6l0.9,0.2c-0.1,0.5-0.1,0.9-0.2,1.2H208.2z M201.7,19.4c-0.1,0.3-0.3,0.5-0.3,0.7c0.5,0.2,0.7,0.2,1,0.3
			c0.4-0.4,0.5-0.8,0.6-1.1H201.7z M205.7,16.1c0,0.4,0.2,2,0.7,3.1c0.3-0.6,0.5-1.6,0.6-3.1H205.7z"/>
		<path class="st3" d="M209.6,16.8c0.3,0.2,0.8,0.6,1.4,1.3c0.2-0.4,0.3-1,0.5-2h-2.7v-0.9h1.7v-1.4h1v1.4h1.6v0.9h-0.5
			c-0.2,1.3-0.5,2-0.7,2.7c0.4,0.4,1,1.2,1.3,1.8l-0.8,0.6c-0.2-0.3-0.5-0.8-1-1.4c-0.7,1.2-1.5,1.9-2,2.3l-0.6-0.8
			c0.4-0.3,1.3-1,2-2.3c-0.8-0.9-1.4-1.3-1.7-1.6L209.6,16.8z M213.8,17.2c0.3,0.4,0.7,1,1.2,2.4L214,20c-0.3-0.8-0.7-1.7-1.1-2.4
			L213.8,17.2z M216.4,13.9v1.7h0.8v1h-0.8v5c0,0.7-0.4,0.8-1.1,0.8H214l-0.2-0.9h1.4c0.3,0,0.3,0,0.3-0.2v-4.7h-2.2v-1h2.2v-1.7
			H216.4z"/>
		<path class="st3" d="M221.6,13.9h0.9v0.8h3.5v0.9h-6.7v3c0,0.2,0,1-0.2,1.9c-0.2,0.9-0.5,1.4-0.8,1.7l-0.7-0.7
			c0.2-0.3,0.8-1.2,0.8-2.8v-4h3.1V13.9z M220.8,18.3c-0.2,2-0.6,2.8-0.9,3.2l-0.7-0.5c0.3-0.4,0.6-1.1,0.8-2.9L220.8,18.3z
			 M221.7,15.7c0.6,0.3,1.3,0.8,2,1.3l-0.6,0.7c-0.7-0.7-1.4-1.1-2-1.4L221.7,15.7z M221.2,17.7h0.9v3.4c0,0.2,0.1,0.2,0.3,0.2h0.8
			c0.2,0,0.3-0.1,0.3-0.2c0-0.2,0.1-0.7,0.1-1.3l0.9,0.2c-0.2,1.7-0.2,2.2-1.1,2.2H222c-0.3,0-0.7-0.1-0.7-0.6V17.7z M225.1,17.8
			c0.2,0.4,0.9,1.9,1.1,3.5l-1,0.3c-0.1-1.1-0.5-2.4-1-3.4L225.1,17.8z"/>
	</g>
</g>
</svg>
