<?xml version="1.0" encoding="utf-8"?>
<!-- Generator: Adobe Illustrator 22.1.0, SVG Export Plug-In . SVG Version: 6.00 Build 0)  -->
<svg version="1.1" id="Logo_FIXED" xmlns="http://www.w3.org/2000/svg" xmlns:xlink="http://www.w3.org/1999/xlink" x="0px" y="0px"
	 viewBox="0 0 45 45" style="enable-background:new 0 0 45 45;" xml:space="preserve">
<style type="text/css">
	.st0{fill:#1DA1F2;}
</style>
<path class="st0" d="M17.8,32.9c9.7,0,15-8,15-15c0-0.3,0-0.4,0-0.7c1-0.8,1.9-1.7,2.6-2.7c-1,0.4-2,0.7-3,0.8
	c1.1-0.6,1.9-1.7,2.3-2.9c-1,0.6-2.2,1-3.3,1.3c-2-2.1-5.3-2.2-7.4-0.3c-1.3,1.3-1.9,3.2-1.5,5c-4.3-0.2-8.2-2.2-10.9-5.5
	c-1.4,2.4-0.7,5.4,1.6,7c-0.8,0-1.7-0.3-2.4-0.6v0.1c0,2.5,1.8,4.7,4.2,5.1c-0.8,0.3-1.6,0.3-2.4,0.1c0.7,2.1,2.7,3.6,4.9,3.6
	c-1.9,1.5-4.2,2.2-6.5,2.2c-0.4,0-0.8,0-1.3-0.1C12.1,32.1,14.9,32.9,17.8,32.9"/>
</svg>
